<svg width="52" height="41" viewBox="0 0 52 41" fill="none" xmlns="http://www.w3.org/2000/svg">
<path d="M19.8772 0.002203C19.2405 0.002203 18.7241 0.507571 18.7241 1.13131V5.96645C18.7241 6.5902 19.2405 7.09542 19.8772 7.09542C20.5142 7.09542 21.0302 6.5902 21.0302 5.96645V1.13131C21.0302 0.507571 20.5142 0.002203 19.8772 0.002203ZM30.3008 0.00646213C29.6649 0.00646213 29.1492 0.510949 29.1492 1.13396V5.9691C29.1492 6.59166 29.6649 7.09659 30.3008 7.09659C30.9367 7.09659 31.4523 6.59166 31.4523 5.9691V1.13396C31.4523 0.510949 30.9367 0.00646213 30.3008 0.00646213ZM9.01398 0.0052872C8.37696 0.0052872 7.86083 0.510949 7.86083 1.1344V5.96983C7.86083 6.59313 8.37696 7.09879 9.01398 7.09879C9.65055 7.09879 10.167 6.59313 10.167 5.96983V1.1344C10.167 0.510949 9.65055 0.0052872 9.01398 0.0052872ZM39.8431 0C39.2041 0 38.6862 0.507277 38.6862 1.13278V5.96792C38.6862 6.59357 39.2041 7.10114 39.8431 7.10114C40.4821 7.10114 41 6.59357 41 5.96792V1.13278C41 0.507277 40.4821 0 39.8431 0ZM16.765 12.8847V12.8852C16.467 12.8852 16.1814 13.0009 15.9702 13.2074C15.7598 13.4138 15.6411 13.6935 15.6411 13.9857V17.2856C15.6411 17.5774 15.7598 17.8575 15.9702 18.0636C16.1814 18.2699 16.467 18.3861 16.765 18.3861H21.5882C22.2087 18.3861 22.7121 17.8932 22.7121 17.2856V13.9857C22.7121 13.3776 22.2087 12.8852 21.5882 12.8852L16.765 12.8847ZM26.9816 12.8847V12.8852C26.6833 12.8852 26.3976 13.0009 26.1868 13.2074C25.9759 13.4138 25.8577 13.6935 25.8577 13.9857V17.2856C25.8577 17.5774 25.9759 17.8575 26.1868 18.0636C26.3976 18.2699 26.6836 18.3861 26.9816 18.3861H31.8044C32.4253 18.3861 32.9284 17.8932 32.9284 17.2856V13.9857C32.9284 13.3776 32.4253 12.8852 31.8044 12.8852L26.9816 12.8847ZM37.2005 12.8847V12.8852C36.9026 12.8852 36.6164 13.0009 36.4057 13.2074C36.195 13.4138 36.0766 13.6935 36.0766 13.9857V17.2856C36.0766 17.5774 36.195 17.8575 36.4057 18.0636C36.6164 18.2699 36.9026 18.3861 37.2005 18.3861H42.0234C42.6442 18.3861 43.1473 17.8932 43.1473 17.2856V13.9857C43.1473 13.3776 42.6442 12.8852 42.0234 12.8852L37.2005 12.8847ZM6.58289 12.8847V12.8852C6.28501 12.8852 5.99927 13.0009 5.78808 13.2074C5.57764 13.4138 5.459 13.6935 5.459 13.9857V17.2856C5.459 17.5774 5.57764 17.8575 5.78808 18.0636C5.99927 18.2699 6.28501 18.3861 6.58289 18.3861H11.4058C12.0267 18.3861 12.5301 17.8932 12.5301 17.2856V13.9857C12.5301 13.3776 12.0267 12.8852 11.4058 12.8852L6.58289 12.8847ZM6.58289 21.077C6.28501 21.077 5.99927 21.1928 5.78808 21.3992C5.57764 21.6057 5.459 21.8853 5.459 22.1774V25.4771C5.459 25.7692 5.57764 26.049 5.78808 26.2553C5.99927 26.4621 6.28501 26.578 6.58289 26.578H11.4058C12.0267 26.578 12.5301 26.085 12.5301 25.4771V22.1774C12.5301 21.5696 12.0267 21.077 11.4058 21.077H6.58289ZM16.765 21.077C16.467 21.077 16.1814 21.1928 15.9702 21.3992C15.7598 21.6057 15.6411 21.8853 15.6411 22.1774V25.4771C15.6411 25.7692 15.7598 26.049 15.9702 26.2558C16.1814 26.4621 16.467 26.578 16.765 26.578H21.5882C22.2087 26.578 22.7121 26.085 22.7121 25.4771V22.1774C22.7121 21.5696 22.2087 21.077 21.5882 21.077H16.765ZM26.9816 21.077C26.6833 21.077 26.3976 21.1928 26.1868 21.3992C25.9759 21.6057 25.8577 21.8853 25.8577 22.1774V25.4771C25.8577 25.7692 25.9759 26.049 26.1868 26.2558C26.3976 26.4621 26.6836 26.578 26.9816 26.578H31.1705C31.6124 25.5511 32.2072 24.6006 32.928 23.7546H32.9284V22.1774C32.9284 21.5696 32.4253 21.077 31.8044 21.077H26.9816ZM41.7 30.2181C42.0928 30.2181 42.4116 30.5302 42.4116 30.9151C42.4116 31.3001 42.0928 31.6121 41.7 31.6121C41.3069 31.6121 40.9881 31.3001 40.9881 30.9151C40.9881 30.5302 41.3069 30.2181 41.7 30.2181ZM41.5902 23.6893C41.1467 23.6893 40.7873 24.0412 40.7873 24.4755V29.7008H40.7865C40.3829 29.9925 40.1323 30.4716 40.1621 30.9987V30.9988C40.2079 31.8017 40.8872 32.423 41.6985 32.423C41.7273 32.423 41.7561 32.4223 41.7854 32.4206C41.9808 32.4101 42.1659 32.3641 42.3343 32.2896H42.3348L45.5179 34.2284C45.6501 34.3088 45.7963 34.3472 45.9411 34.3472C46.2095 34.3472 46.4717 34.2155 46.6238 33.9761C46.8581 33.6073 46.7429 33.1225 46.3661 32.8931L43.2386 30.9883H43.2383C43.2406 30.9366 43.2406 30.8843 43.2374 30.8315V30.8314C43.2061 30.2737 42.8689 29.8042 42.3939 29.5688H42.3936V24.4755C42.3936 24.0412 42.0337 23.6893 41.5902 23.6893ZM6.58289 29.3952C6.28501 29.3952 5.99927 29.5109 5.78808 29.7174C5.57764 29.9238 5.459 30.2038 5.459 30.4957V33.7956C5.459 34.0876 5.57764 34.3675 5.78808 34.5739C5.99927 34.7803 6.28501 34.8962 6.58289 34.8962H11.4058C12.0267 34.8962 12.5301 34.4035 12.5301 33.7956V30.4957C12.5301 29.8881 12.0267 29.3952 11.4058 29.3952H6.58289ZM16.765 29.3952C16.467 29.3952 16.1814 29.5109 15.9702 29.7174C15.7598 29.9238 15.6411 30.2038 15.6411 30.4957V33.7956C15.6411 34.0876 15.7598 34.3675 15.9702 34.5739C16.1814 34.7803 16.467 34.8962 16.765 34.8962H21.5882C22.2087 34.8962 22.7121 34.4035 22.7121 33.7956V30.4957C22.7121 29.8881 22.2087 29.3952 21.5882 29.3952H16.765ZM26.9816 29.3952C26.6833 29.3952 26.3976 29.5109 26.1868 29.7177C25.9759 29.9238 25.8577 30.2038 25.8577 30.4957V33.7956C25.8577 34.0876 25.9759 34.3675 26.1868 34.5739C26.3976 34.7803 26.6836 34.8962 26.9816 34.8962H31.0246C30.6049 33.8169 30.3499 32.655 30.292 31.4387C30.2585 30.7437 30.2908 30.0606 30.3833 29.3952H26.9816ZM6.73619 2.86346C6.73544 2.86346 6.73469 2.86346 6.73424 2.86346C6.72239 2.86346 6.71084 2.86346 6.69929 2.8639C5.01637 2.92705 2.67363 2.95598 1.38924 4.20464C0.0970455 5.46035 0.0925457 7.73282 0.0452979 9.34762C0.0448479 9.35628 0.0448479 9.3645 0.0448479 9.37273L0 31.6693C0 31.6759 0 31.6823 0 31.689C0.0322485 33.3537 0.0133494 35.6975 1.29744 36.9597C2.58918 38.2294 4.96102 38.178 6.62789 38.1877C6.62939 38.1877 6.63089 38.1877 6.63284 38.1877L33.0471 38.2138C32.5363 37.6341 32.0852 37.0021 31.7027 36.3264L6.63794 36.3016H6.63749C4.59669 36.2897 3.2604 36.2166 2.66208 35.6286C2.05805 35.0349 1.96596 33.6913 1.92606 31.6729L1.96671 11.4866H46.5781L46.5793 20.8029H46.58C47.2608 21.1187 47.9055 21.4985 48.5058 21.935L48.5038 9.41459C48.5181 7.76851 48.6045 5.41717 47.2997 4.14369C46.003 2.87844 43.5674 2.91839 41.8413 2.90032C41.8378 2.90032 41.8344 2.90032 41.8314 2.90032H41.8302L41.379 2.90076V5.96792C41.379 6.79889 40.6913 7.47228 39.8431 7.47228C38.9949 7.47228 38.3072 6.79889 38.3072 5.96792V2.9037L31.8356 2.91016V5.9691C31.8356 6.79919 31.1486 7.47184 30.3008 7.47184C29.4529 7.47184 28.766 6.79919 28.766 5.9691V2.9131L22.4864 2.91912L21.4174 2.9153V5.96645C21.4174 6.79919 20.7277 7.47404 19.8772 7.47404C19.0271 7.47404 18.3374 6.79919 18.3374 5.96645V2.90443L10.5529 2.87697V5.96983C10.5529 6.80227 9.86369 7.47668 9.01398 7.47668C8.16382 7.47668 7.4746 6.80227 7.4746 5.96983V2.8661L6.73964 2.86346C6.73844 2.86346 6.73739 2.86346 6.73619 2.86346ZM41.7066 22.5835C46.2233 22.5835 49.9864 26.0618 50.1998 30.5249C50.4198 35.1214 46.7929 39.022 42.0982 39.2375C41.9626 39.2438 41.8275 39.2469 41.6931 39.2469C37.1767 39.2469 33.4133 35.7688 33.1999 31.3053C32.9799 26.7092 36.6068 22.8084 41.3015 22.5929C41.4371 22.5866 41.5722 22.5835 41.7066 22.5835ZM41.7081 20.8304C41.7074 20.8304 41.7069 20.8304 41.7062 20.8304C41.5442 20.8304 41.3813 20.834 41.2178 20.8417C35.5356 21.1025 31.1451 25.8237 31.4112 31.3873V31.3874C31.67 36.7901 36.2248 41 41.6916 41C41.8543 41 42.018 40.9963 42.1824 40.9887C47.8644 40.728 52.255 36.0065 51.9885 30.4429C51.73 25.0402 47.1749 20.8304 41.7081 20.8304Z" fill="#2E2E2E"/>
</svg>
